<?xml version="1.0" encoding="utf-8"?>
<!-- Generator: Adobe Illustrator 22.0.0, SVG Export Plug-In . SVG Version: 6.00 Build 0)  -->
<svg version="1.1" id="图层_1" xmlns="http://www.w3.org/2000/svg" xmlns:xlink="http://www.w3.org/1999/xlink" x="0px" y="0px"
	 viewBox="0 0 949 256" style="enable-background:new 0 0 949 256;" xml:space="preserve">
<g>
	<g>
		<path d="M84.9,190.4V77.6H99v55h0.8l49.8-55h17.7L121,127.6l50.5,62.8h-18l-42.3-52.8L99,151v39.4H84.9z"/>
		<path d="M248,190.4h-12.9v-13.2h-0.3c-1.6,3.1-3.6,5.8-6.1,8s-5.3,3.8-8.6,5s-7,1.7-11.2,1.7c-5.9,0-10.9-1.2-15.2-3.6
			s-7.4-5.9-9.6-10.4c-2.2-4.5-3.3-9.8-3.3-15.9v-52.7h13.6v50.3c0,6.6,1.5,11.7,4.6,15.1c3.1,3.5,7.8,5.2,14.1,5.2
			c4.4,0,8.2-0.9,11.4-2.9c3.2-1.9,5.6-4.6,7.3-8c1.7-3.4,2.5-7.4,2.5-12v-47.7H248V190.4z"/>
		<path d="M265.6,109.1h12.8v13h0.3c2.3-4.4,5.6-7.9,9.9-10.5c4.3-2.6,9.6-3.9,15.9-3.9c8.9,0,15.8,2.7,20.7,8
			c4.9,5.4,7.4,12.7,7.4,21.9v52.7H319v-50.3c0-6.6-1.6-11.6-4.6-15.1c-3.1-3.5-7.8-5.2-14-5.2c-4.3,0-8,1-11.2,2.9
			c-3.2,1.9-5.6,4.6-7.4,8c-1.7,3.4-2.6,7.4-2.6,12v47.8h-13.6V109.1z"/>
		<path d="M449.9,190.4v-86.9h-0.5l-35.9,86.9h-11.9l-35.9-86.9h-0.5v86.9H352V77.6h16.3l38.9,94.8h0.6l38.9-94.8h16.3v112.7H449.9z
			"/>
		<path d="M484.3,92.2c-1.7-1.7-2.5-3.7-2.5-6c0-2.4,0.8-4.4,2.5-6.1c1.7-1.6,3.7-2.5,6-2.5c2.4,0,4.4,0.8,6.1,2.5s2.5,3.7,2.5,6.1
			c0,2.3-0.8,4.3-2.5,6c-1.6,1.7-3.7,2.5-6.1,2.5C488,94.7,486,93.8,484.3,92.2z M483.5,109.1h13.6v81.2h-13.6V109.1z"/>
		<path d="M515.5,109.1h12.8v13h0.3c2.3-4.4,5.6-7.9,9.9-10.5c4.3-2.6,9.6-3.9,15.9-3.9c8.9,0,15.8,2.7,20.7,8
			c4.9,5.4,7.4,12.7,7.4,21.9v52.7h-13.6v-50.3c0-6.6-1.6-11.6-4.6-15.1c-3.1-3.5-7.8-5.2-14-5.2c-4.3,0-8,1-11.2,2.9
			c-3.2,1.9-5.6,4.6-7.4,8c-1.7,3.4-2.6,7.4-2.6,12v47.8h-13.6V109.1z"/>
		<path d="M632.8,133.9v-0.5l-37.9-55.7h17l30.1,45.3h0.5L673,77.6h16L650.1,134v0.5l38,55.9h-16.9l-29.9-44.9h-0.5l-30.4,44.9
			h-15.9L632.8,133.9z"/>
	</g>
</g>
</svg>
